<svg id="Layer_1" data-name="Layer 1" xmlns="http://www.w3.org/2000/svg" viewBox="0 0 177.94 60.93"><defs><style>.cls-1{fill:#ff0101;}.cls-2{fill:#e60000;}.cls-3{fill:#020203;}</style></defs><g id="mask0_48_1" data-name="mask0 48 1"><path class="cls-1" d="M29.6,58.7A28.85,28.85,0,1,0,1,29.85,28.73,28.73,0,0,0,29.6,58.7Z" transform="translate(-0.06 -1)"/></g><path class="cls-2" d="M72.28,38.55a5.91,5.91,0,0,1-2.58-2.22,6.41,6.41,0,0,1-1-3.29h3A3.94,3.94,0,0,0,73,35.7a4.59,4.59,0,0,0,3.15,1,4.9,4.9,0,0,0,2.7-.69,2.38,2.38,0,0,0,1.07-2,2,2,0,0,0-.57-1.52,3.49,3.49,0,0,0-1.51-.83c-.63-.19-1.57-.38-2.76-.63h-.13a11.62,11.62,0,0,1-3-.83,5.68,5.68,0,0,1-2.08-1.58,4.75,4.75,0,0,1-.75-2.79A4.9,4.9,0,0,1,70,23a6,6,0,0,1,2.32-2,8.26,8.26,0,0,1,3.4-.7,7.69,7.69,0,0,1,3.51.76,5.66,5.66,0,0,1,2.46,2,5.14,5.14,0,0,1,.94,3h-3a3.43,3.43,0,0,0-1.25-2.28,4.21,4.21,0,0,0-2.7-.89,4.41,4.41,0,0,0-2.58.7,2.29,2.29,0,0,0-.94,2A1.9,1.9,0,0,0,72.72,27a4.25,4.25,0,0,0,1.51.83c.63.19,1.51.38,2.7.63A16.22,16.22,0,0,1,80,29.3a4.83,4.83,0,0,1,2.14,1.58A4.37,4.37,0,0,1,83,33.67a5.36,5.36,0,0,1-.88,2.92,5.66,5.66,0,0,1-2.46,2,8,8,0,0,1-3.51.69A7.4,7.4,0,0,1,72.28,38.55Z" transform="translate(-0.06 -1)"/><path class="cls-2" d="M95.85,26.25a5.93,5.93,0,0,1,2.26,2.41,7.76,7.76,0,0,1,.82,3.74A7.28,7.28,0,0,1,98.11,36a6.16,6.16,0,0,1-2.26,2.47,6.3,6.3,0,0,1-3.27.89,5.65,5.65,0,0,1-3-.76,5.18,5.18,0,0,1-1.83-2l.38-.64v8.63H85.29v-19h2.45L88.31,29l-.63-.64a7.41,7.41,0,0,1,1.89-2.09,5.35,5.35,0,0,1,3-.76A6.45,6.45,0,0,1,95.85,26.25ZM90,28.41A3.46,3.46,0,0,0,88.62,30a5.67,5.67,0,0,0-.5,2.35,6,6,0,0,0,.5,2.41A4.47,4.47,0,0,0,90,36.4a3.74,3.74,0,0,0,2.07.57,3.91,3.91,0,0,0,2.07-.57,3.75,3.75,0,0,0,1.39-1.59,5.75,5.75,0,0,0,0-4.69,3.43,3.43,0,0,0-1.39-1.59A3.91,3.91,0,0,0,92.08,28,2.85,2.85,0,0,0,90,28.41Z" transform="translate(-0.06 -1)"/><path class="cls-2" d="M104,38.49A5.84,5.84,0,0,1,101.57,36a8,8,0,0,1,0-7.3A5.76,5.76,0,0,1,104,26.31a7.54,7.54,0,0,1,3.59-.88,7.16,7.16,0,0,1,3.58.88,6.11,6.11,0,0,1,2.45,2.41,8.13,8.13,0,0,1,0,7.36,6.13,6.13,0,0,1-2.45,2.47,7.54,7.54,0,0,1-3.58.89A7.88,7.88,0,0,1,104,38.49Zm5.66-2.16a3.33,3.33,0,0,0,1.38-1.58,5.52,5.52,0,0,0,.5-2.35,5.44,5.44,0,0,0-.5-2.34,3.36,3.36,0,0,0-1.38-1.59,3.93,3.93,0,0,0-2.07-.57,3.8,3.8,0,0,0-2.08.57,3.36,3.36,0,0,0-1.38,1.59,5.44,5.44,0,0,0-.51,2.34,5.52,5.52,0,0,0,.51,2.35,3.68,3.68,0,0,0,1.38,1.58,3.94,3.94,0,0,0,2.08.57A3.79,3.79,0,0,0,109.68,36.33Z" transform="translate(-0.06 -1)"/><path class="cls-2" d="M119.29,25.62,119.8,29l-.57-.64a5,5,0,0,1,1.57-2,4.38,4.38,0,0,1,2.77-.7h.63v2.66h-1.26a3,3,0,0,0-2.58,1.15,5.38,5.38,0,0,0-.81,3v6.84h-2.83V25.62Z" transform="translate(-0.06 -1)"/><path class="cls-2" d="M126.08,21.75h2.83v3.8h3.27V28h-3.27v7.1a1.63,1.63,0,0,0,.32,1.14c.18.25.56.32,1.06.32h2.2v2.53h-2.76a3.83,3.83,0,0,1-2.77-.88,3.93,3.93,0,0,1-.88-2.79Z" transform="translate(-0.06 -1)"/><path class="cls-2" d="M137.21,38.55a5.91,5.91,0,0,1-2.58-2.22,6.32,6.32,0,0,1-1-3.29h3a3.9,3.9,0,0,0,1.32,2.66,4.56,4.56,0,0,0,3.14,1,4.9,4.9,0,0,0,2.7-.69,2.35,2.35,0,0,0,1.07-2,2.08,2.08,0,0,0-.56-1.52,3.49,3.49,0,0,0-1.51-.83c-.63-.19-1.57-.38-2.77-.63h-.12a11.82,11.82,0,0,1-3-.83,5.73,5.73,0,0,1-2.07-1.58,4.75,4.75,0,0,1-.75-2.79,5,5,0,0,1,.81-2.86,6,6,0,0,1,2.33-2,8.21,8.21,0,0,1,3.39-.7,7.73,7.73,0,0,1,3.52.76,5.57,5.57,0,0,1,2.45,2,5.08,5.08,0,0,1,1,3h-3a3.4,3.4,0,0,0-1.26-2.28,4.19,4.19,0,0,0-2.7-.89,4.41,4.41,0,0,0-2.58.7,2.31,2.31,0,0,0-.94,2,1.91,1.91,0,0,0,.57,1.46,4.16,4.16,0,0,0,1.51.83c.63.19,1.5.38,2.7.63a16.43,16.43,0,0,1,3.08.83,4.83,4.83,0,0,1,2.14,1.58,4.36,4.36,0,0,1,.81,2.79,5.27,5.27,0,0,1-.88,2.92,5.57,5.57,0,0,1-2.45,2,8.05,8.05,0,0,1-3.52.69A7.51,7.51,0,0,1,137.21,38.55Z" transform="translate(-0.06 -1)"/><path class="cls-2" d="M153.05,38.49a6,6,0,0,1-2.45-2.41,7.7,7.7,0,0,1-.88-3.68,7.66,7.66,0,0,1,.81-3.68,6.2,6.2,0,0,1,2.33-2.41,6.84,6.84,0,0,1,3.46-.88,7.43,7.43,0,0,1,3.45.76,5.45,5.45,0,0,1,2.33,2.28,7,7,0,0,1,.88,3.42v.51a1.6,1.6,0,0,1-.07.57H152.73v.13a5.1,5.1,0,0,0,.51,2,3.31,3.31,0,0,0,1.32,1.33,3.81,3.81,0,0,0,1.94.51,3.44,3.44,0,0,0,2.2-.64,2.91,2.91,0,0,0,1.2-1.77h2.89A5.54,5.54,0,0,1,161.72,37a6.87,6.87,0,0,1-2.07,1.71,7.19,7.19,0,0,1-2.89.63A6.78,6.78,0,0,1,153.05,38.49Zm1.69-10.34a3.13,3.13,0,0,0-1.25,1.15,3.61,3.61,0,0,0-.63,1.64h7.23A3.5,3.5,0,0,0,159,28.6a3.67,3.67,0,0,0-2.52-.83A2.68,2.68,0,0,0,154.74,28.15Z" transform="translate(-0.06 -1)"/><path class="cls-2" d="M168.07,38.49a6,6,0,0,1-2.45-2.41,7.7,7.7,0,0,1-.88-3.68,7.66,7.66,0,0,1,.81-3.68,6.27,6.27,0,0,1,2.33-2.41,6.87,6.87,0,0,1,3.46-.88,7.43,7.43,0,0,1,3.45.76,5.45,5.45,0,0,1,2.33,2.28,6.91,6.91,0,0,1,.88,3.42v.51a1.85,1.85,0,0,1-.06.57H167.76v.13a4.94,4.94,0,0,0,.5,2,3.31,3.31,0,0,0,1.32,1.33,3.82,3.82,0,0,0,1.95.51,3.46,3.46,0,0,0,2.2-.64,2.93,2.93,0,0,0,1.19-1.77h2.89A5.54,5.54,0,0,1,176.74,37a6.63,6.63,0,0,1-2.07,1.71,7.16,7.16,0,0,1-2.89.63A6.93,6.93,0,0,1,168.07,38.49Zm1.7-10.34a3.1,3.1,0,0,0-1.26,1.15,3.73,3.73,0,0,0-.63,1.64h7.23A3.46,3.46,0,0,0,174,28.6a3.67,3.67,0,0,0-2.52-.83A2.65,2.65,0,0,0,169.77,28.15Z" transform="translate(-0.06 -1)"/><path class="cls-1" d="M29.6,58.7A28.85,28.85,0,1,0,1,29.85,28.73,28.73,0,0,0,29.6,58.7Z" transform="translate(-0.06 -1)"/><path class="cls-3" d="M41.92,17.42a4.82,4.82,0,1,0-4.78-4.82A4.79,4.79,0,0,0,41.92,17.42Z" transform="translate(-0.06 -1)"/><path class="cls-3" d="M40.53,30.42a1.77,1.77,0,0,0,1.51.83A1.8,1.8,0,0,0,43,31l8.61-5.2a1.79,1.79,0,0,0,.63-2.47,1.77,1.77,0,0,0-2.46-.63L42.61,27l-3.46-6.79a30.71,30.71,0,0,0-3.08-2.72l-10.24-5.2a1.79,1.79,0,0,0-2,.25l-8.55,7.8a1.76,1.76,0,0,0-.13,2.54,1.73,1.73,0,0,0,2.52.12l7.73-7,5.34,2.72L21.55,33.09.62,58.07a2.35,2.35,0,0,0,.25,3.3,2.29,2.29,0,0,0,3.27-.26l20.3-23.65,8.74,2-6,9.45a2.31,2.31,0,0,0,.88,3.17,2.28,2.28,0,0,0,3-.7l7.66-12.24A2.39,2.39,0,0,0,39,37a2.21,2.21,0,0,0-1.64-1.34L30.67,34.1l6.09-9.64Z" transform="translate(-0.06 -1)"/></svg>